{"title":"Empty Nest Season 5 (1992 - 93) fiveofseven","uid":14492549,"size":5060953386,"categoryP":"video","categoryS":"tv_shows","magnet":"?xt=urn:btih:6182c68cdd20494b5e9ebe8b5985489dd84ecda2&amp;dn=Empty+Nest+Season+5+%281992+-+93%29+fiveofseven&amp;tr=udp%3A%2F%2Ftracker.leechers-paradise.org%3A6969&amp;tr=udp%3A%2F%2Fzer0day.ch%3A1337&amp;tr=udp%3A%2F%2Fopen.demonii.com%3A1337&amp;tr=udp%3A%2F%2Ftracker.coppersurfer.tk%3A6969&amp;tr=udp%3A%2F%2Fexodus.desync.com%3A6969","seeders":3,"leechers":1,"uploader":"fiveofseven","files":52,"time":1462118272,"description":"\nhttps://yuq.me/users/25/564/UsfGZc15bI.png \r\n   \nhttps://yuq.me/users/25/564/0GVaMCzdbs.png \r\n \r\n\r\n\r\nPLOT - The show revolves around pediatrician Dr. Harry Weston (Richard Mulligan), \r\nwhose life is turned upside down when his wife, Libby, dies, and two of his three\r\nadult daughters move back into the family home in Miami. \r\n\r\nEldest daughter Carol (Dinah Manoff) was a neurotic and high-strung recent divorcée, \r\nwhile middle daughter Barbara (Kristy McNichol) was a tough undercover police officer. \r\nThe two sisters frequently bickered and vied for the attention of their father, \r\nwhom they called &quot;Daddy.&quot; The Westons' large dog Dreyfuss was also prominently featured.\r\n\r\nAnother main character was the Westons' neighbor, Charley Dietz (David Leisure), \r\na womanizing cruise ship employee who frequently barged into \r\nthe house unannounced to borrow food or make sexist comments. \r\nCharley had a father-son relationship with Harry \r\nand a love-hate relationship with Carol.\r\n\r\nHarry works at a hospital where he was aided by his wise-cracking Southern nurse Laverne (Park Overall). \r\n\r\nIn 1992, Kristy McNichol left the show for heath reasons. She initially was going to return,\r\nbut instead decided to retire from acting. However she returns for the 7th season finale.\r\nThe youngest Weston daughter, Emily (Lisa Rieffel), joined the cast for Season 5 only. \r\n  https://yuq.me/users/25/564/mMCl0vVUA1.png \r\nAlso joining the cast, Carol's boyfriend, Patrick (Paul Provenza), \r\nan artist who was almost as eccentric as she. \r\n  https://yuq.me/users/25/564/to3qfz7Fvj.png \r\n\r\n\r\nINFO (Based on 1st episode only)\r\n\r\nEncoder: fiveofseven\r\nSource: SDTV \r\n(Not HD, LAFF logo remains in screen &amp; usually 2 quick banners per episode) \r\n  https://yuq.me/users/25/564/GPmoZptvye.png \r\nRating: TV-PG\r\nGenre: Comedy, Family\r\nSubtitles: English\r\n\r\nGeneral\r\nComplete name                            : 01 Why Do Fools Fall in Love - fiveofseven.mp4\r\nFormat                                   : MPEG-4\r\nFormat profile                           : Base Media\r\nCodec ID                                 : isom\r\nFile size                                : 186 MiB\r\nDuration                                 : 22mn 59s\r\nOverall bit rate mode                    : Variable\r\nOverall bit rate                         : 1 133 Kbps\r\nEncoded date                             : UTC 2016-02-21 20:47:29\r\nTagged date                              : UTC 2016-02-21 20:47:29\r\nWriting application                      : My MP4Box GUI 0.6.0.6 &lt;http://my-mp4box-gui.zymichost.com&gt;\r\n\r\nVideo\r\nID                                       : 1\r\nFormat                                   : AVC\r\nFormat/Info                              : Advanced Video Codec\r\nFormat profile                           :   \r\nFormat settings, CABAC                   : Yes\r\nFormat settings, ReFrames                : 7 frames\r\nCodec ID                                 : avc1\r\nCodec ID/Info                            : Advanced Video Coding\r\nDuration                                 : 22mn 59s\r\nBit rate                                 : 1 000 Kbps\r\nMaximum bit rate                         : 2 610 Kbps\r\nWidth                                    : 648 pixels\r\nHeight                                   : 472 pixels\r\nDisplay aspect ratio                     : 1.373\r\nFrame rate mode                          : Constant\r\nFrame rate                               : 29.970 fps\r\nColor space                              : YUV\r\nChroma subsampling                       : 4:2:0\r\nBit depth                                : 8 bits\r\nScan type                                : Progressive\r\nBits/(Pixel*Frame)                       : 0.109\r\nStream size                              : 165 MiB (88%)\r\nTitle                                    : en.mp4\r\nWriting library                          : x264 core 146 r2538 121396c\r\nLanguage                                 : English\r\nEncoded date                             : UTC 2016-02-21 20:36:58\r\nTagged date                              : UTC 2016-02-21 20:47:32\r\n\r\nAudio\r\nID                                       : 2\r\nFormat                                   : AAC\r\nFormat/Info                              : Advanced Audio Codec\r\nFormat profile                           : LC\r\nCodec ID                                 : 40\r\nDuration                                 : 22mn 59s\r\nBit rate mode                            : Variable\r\nBit rate                                 : 128 Kbps\r\nMaximum bit rate                         : 134 Kbps\r\nChannel count                            : 2 channels\r\nChannel positions                        : Front: L R\r\nSampling rate                            : 48.0 KHz\r\nCompression mode                         : Lossy\r\nDelay relative to video                  : 100ms\r\nStream size                              : 21.1 MiB (11%)\r\nTitle                                    : aac.mp4\r\nLanguage                                 : English\r\nEncoded date                             : UTC 2016-02-21 20:47:30\r\nTagged date                              : UTC 2016-02-21 20:47:32\r\n\r\n\r\nScreenshots - \r\n   \nhttps://yuq.me/users/25/564/y6PY9UpJgX.png \r\n   \nhttps://yuq.me/users/25/564/VdRw4myJNS.png \r\n   \nhttps://yuq.me/users/25/564/Z9qTeCRHuh.png \r\n   \nhttps://yuq.me/users/25/564/sWctaHxkZv.png \r\n   \nhttps://yuq.me/users/25/564/w2QrfsOYH0.png \r\n \r\nsignature \r\n   \nhttps://yuq.me/users/25/564/aegRQCBILx.png","torrent":{"xt":"urn:btih:6182c68cdd20494b5e9ebe8b5985489dd84ecda2","amp;dn":"Empty+Nest+Season+5+%281992+-+93%29+fiveofseven","amp;tr":["udp%3A%2F%2Ftracker.leechers-paradise.org%3A6969","udp%3A%2F%2Fzer0day.ch%3A1337","udp%3A%2F%2Fopen.demonii.com%3A1337","udp%3A%2F%2Ftracker.coppersurfer.tk%3A6969","udp%3A%2F%2Fexodus.desync.com%3A6969"],"infoHash":"6182c68cdd20494b5e9ebe8b5985489dd84ecda2","infoHashBuffer":{"type":"Buffer","data":[97,130,198,140,221,32,73,75,94,158,190,139,89,133,72,157,216,78,205,162]},"announce":[],"urlList":[]}}